<svg width="1562" height="341" viewBox="0 0 1562 341" fill="none" xmlns="http://www.w3.org/2000/svg">
<path fill-rule="evenodd" clip-rule="evenodd" d="M169.202 1.89316C132.161 11.9012 110.327 52.4282 120.458 92.3661C127.895 121.682 144.17 143.722 176 167.583C194.768 181.651 222.365 199.466 241.75 210.026L248 213.431L254.25 210.006C272.178 200.183 303.19 180.305 320 167.861C338.915 153.859 356.741 133.436 365.763 115.431C380.465 86.0912 380.626 52.9242 366.175 30.8002C346.425 0.565157 307.574 -8.90985 277.241 9.11016C269.771 13.5482 258.537 24.9422 253 33.6982C250.525 37.6122 248.244 40.8402 247.93 40.8722C247.617 40.9052 244.765 37.1092 241.592 32.4392C232.119 18.4932 219.838 8.60216 205.242 3.16516C195.799 -0.351844 179.625 -0.922843 169.202 1.89316ZM116 199.994C104.68 201.385 90.949 205.091 62.603 214.407C37.852 222.541 20.601 227.052 9 228.425C0.553 229.424 0 229.71 0 233.071C0 234.723 1.157 241.105 2.571 247.253C7.793 269.962 16.023 284.944 27.74 293.072C37.121 299.58 44.712 301.255 77 303.944C91.611 305.161 110.58 308.869 124 313.132C129.225 314.792 143.4 320.135 155.5 325.006C181.924 335.644 192.523 338.597 208.5 339.777C241.886 342.241 277.503 335.806 310.992 321.257C335.81 310.476 356.962 297.488 385 275.815C392.975 269.65 405.795 259.842 413.489 254.019C432.621 239.539 435.006 237.06 434.978 231.681C434.94 224.389 430.632 220.931 421.586 220.931C411.992 220.931 411.026 221.484 360.5 255.944C331.572 275.673 307.977 285.817 285.641 288.127C270.184 289.725 245.682 287.979 228.5 284.055C216.428 281.298 197.039 274.721 191.069 271.358C188.561 269.945 188.594 269.925 192.5 270.5C194.7 270.823 200.325 271.939 205 272.979C238.16 280.354 268.764 282.828 283.995 279.364C297.094 276.385 303.184 268.864 299.937 259.677C297.282 252.166 293.694 250.95 268.27 248.945C245.644 247.16 232.178 242.302 200.629 224.542C183.275 214.772 168.289 207.271 161.232 204.821C147.923 200.201 129.935 198.282 116 199.994ZM350.994 215.865C349.615 216.285 346.915 217.427 344.994 218.405C341.71 220.075 301.635 246.269 299.523 248.126C298.272 249.226 306.806 256.83 309.357 256.888C312.285 256.956 362.478 223.202 364.631 219.719C365.009 219.107 364.297 217.78 363.048 216.769C360.698 214.866 355.548 214.48 350.994 215.865ZM384.324 217.371C378.447 219.208 369.014 224.641 350.474 236.865C341.66 242.676 329.397 250.526 323.224 254.309C313.82 260.071 310.842 262.55 304.865 269.59C300.941 274.213 298.043 278.307 298.425 278.689C299.655 279.919 316.121 275.045 324.433 270.989C328.87 268.824 337.339 263.875 343.253 259.991C349.167 256.107 354.565 252.817 355.249 252.68C355.933 252.543 356.944 251.93 357.496 251.318C358.048 250.706 366.375 244.898 376 238.411C402.126 220.805 401.493 221.4 397.777 217.938C395.281 215.613 390.58 215.414 384.324 217.371Z" fill="#F7F3ED" fill-opacity="0.3"/>
<path d="M459.418 161.646V72.0455H472.218V161.646H459.418ZM540.664 161.646L501.24 72.0455H515.064L551.288 154.734H543.352L579.832 72.0455H592.632L553.336 161.646H540.664ZM660.271 162.67C653.444 162.67 647.087 161.518 641.199 159.214C635.396 156.91 630.362 153.71 626.095 149.614C621.828 145.432 618.5 140.568 616.111 135.022C613.722 129.475 612.527 123.416 612.527 116.846C612.527 110.275 613.722 104.216 616.111 98.6695C618.5 93.1228 621.828 88.3015 626.095 84.2055C630.362 80.0242 635.396 76.7815 641.199 74.4775C647.002 72.1735 653.359 71.0215 660.271 71.0215C667.098 71.0215 673.37 72.1735 679.087 74.4775C684.89 76.6962 689.924 79.8962 694.191 84.0775C698.543 88.1735 701.871 92.9948 704.175 98.5415C706.564 104.088 707.759 110.19 707.759 116.846C707.759 123.502 706.564 129.603 704.175 135.15C701.871 140.696 698.543 145.56 694.191 149.742C689.924 153.838 684.89 157.038 679.087 159.342C673.37 161.56 667.098 162.67 660.271 162.67ZM660.271 151.278C665.22 151.278 669.786 150.424 673.967 148.718C678.234 147.011 681.903 144.622 684.975 141.55C688.132 138.392 690.564 134.723 692.271 130.542C694.063 126.36 694.959 121.795 694.959 116.846C694.959 111.896 694.063 107.331 692.271 103.15C690.564 98.9682 688.132 95.3415 684.975 92.2695C681.903 89.1122 678.234 86.6802 673.967 84.9735C669.786 83.2668 665.22 82.4135 660.271 82.4135C655.236 82.4135 650.586 83.2668 646.319 84.9735C642.138 86.6802 638.468 89.1122 635.311 92.2695C632.154 95.3415 629.679 98.9682 627.887 103.15C626.18 107.331 625.327 111.896 625.327 116.846C625.327 121.795 626.18 126.36 627.887 130.542C629.679 134.723 632.154 138.392 635.311 141.55C638.468 144.622 642.138 147.011 646.319 148.718C650.586 150.424 655.236 151.278 660.271 151.278ZM743.963 161.646V72.0455H778.907C786.758 72.0455 793.456 73.2828 799.003 75.7575C804.55 78.2322 808.816 81.8162 811.803 86.5095C814.79 91.2028 816.283 96.7922 816.283 103.278C816.283 109.763 814.79 115.352 811.803 120.046C808.816 124.654 804.55 128.195 799.003 130.67C793.456 133.144 786.758 134.382 778.907 134.382H751.003L756.763 128.494V161.646H743.963ZM803.867 161.646L781.083 129.134H794.779L817.819 161.646H803.867ZM756.763 129.774L751.003 123.502H778.523C786.715 123.502 792.902 121.752 797.083 118.254C801.35 114.67 803.483 109.678 803.483 103.278C803.483 96.8775 801.35 91.9282 797.083 88.4295C792.902 84.9308 786.715 83.1815 778.523 83.1815H751.003L756.763 76.7815V129.774ZM853.603 161.646V72.0455H888.547C896.398 72.0455 903.096 73.2828 908.643 75.7575C914.19 78.2322 918.456 81.8162 921.443 86.5095C924.43 91.2028 925.923 96.7922 925.923 103.278C925.923 109.763 924.43 115.352 921.443 120.046C918.456 124.654 914.19 128.195 908.643 130.67C903.096 133.144 896.398 134.382 888.547 134.382H860.643L866.403 128.494V161.646H853.603ZM913.507 161.646L890.723 129.134H904.419L927.459 161.646H913.507ZM866.403 129.774L860.643 123.502H888.163C896.355 123.502 902.542 121.752 906.723 118.254C910.99 114.67 913.123 109.678 913.123 103.278C913.123 96.8775 910.99 91.9282 906.723 88.4295C902.542 84.9308 896.355 83.1815 888.163 83.1815H860.643L866.403 76.7815V129.774ZM963.243 161.646V72.0455H976.043V161.646H963.243ZM1045.62 162.67C1038.79 162.67 1032.27 161.646 1026.04 159.598C1019.81 157.464 1014.9 154.734 1011.32 151.406L1016.05 141.422C1019.47 144.408 1023.82 146.883 1029.11 148.846C1034.4 150.808 1039.9 151.79 1045.62 151.79C1050.83 151.79 1055.05 151.192 1058.29 149.998C1061.53 148.803 1063.92 147.182 1065.46 145.134C1067 143 1067.76 140.611 1067.76 137.966C1067.76 134.894 1066.74 132.419 1064.69 130.542C1062.73 128.664 1060.13 127.171 1056.88 126.062C1053.73 124.867 1050.23 123.843 1046.39 122.99C1042.55 122.136 1038.67 121.155 1034.74 120.046C1030.9 118.851 1027.36 117.358 1024.12 115.566C1020.96 113.774 1018.4 111.384 1016.44 108.398C1014.47 105.326 1013.49 101.4 1013.49 96.6215C1013.49 92.0135 1014.69 87.7895 1017.08 83.9495C1019.55 80.0242 1023.31 76.9095 1028.34 74.6055C1033.46 72.2162 1039.95 71.0215 1047.8 71.0215C1053 71.0215 1058.16 71.7042 1063.28 73.0695C1068.4 74.4348 1072.84 76.3975 1076.6 78.9575L1072.37 89.1975C1068.53 86.6375 1064.48 84.8028 1060.21 83.6935C1055.95 82.4988 1051.81 81.9015 1047.8 81.9015C1042.76 81.9015 1038.62 82.5415 1035.38 83.8215C1032.14 85.1015 1029.75 86.8082 1028.21 88.9415C1026.76 91.0748 1026.04 93.4642 1026.04 96.1095C1026.04 99.2668 1027.02 101.784 1028.98 103.662C1031.03 105.539 1033.63 107.032 1036.79 108.142C1040.03 109.251 1043.57 110.275 1047.41 111.214C1051.25 112.067 1055.09 113.048 1058.93 114.158C1062.86 115.267 1066.4 116.718 1069.56 118.51C1072.8 120.302 1075.4 122.691 1077.36 125.678C1079.33 128.664 1080.31 132.504 1080.31 137.198C1080.31 141.72 1079.07 145.944 1076.6 149.87C1074.12 153.71 1070.28 156.824 1065.08 159.214C1059.96 161.518 1053.47 162.67 1045.62 162.67ZM1206.73 162.67C1199.9 162.67 1193.59 161.56 1187.78 159.342C1182.07 157.038 1177.07 153.838 1172.81 149.742C1168.63 145.56 1165.34 140.696 1162.95 135.15C1160.56 129.603 1159.37 123.502 1159.37 116.846C1159.37 110.19 1160.56 104.088 1162.95 98.5415C1165.34 92.9948 1168.67 88.1735 1172.94 84.0775C1177.2 79.8962 1182.19 76.6962 1187.91 74.4775C1193.71 72.1735 1200.03 71.0215 1206.86 71.0215C1213.77 71.0215 1220.12 72.2162 1225.93 74.6055C1231.82 76.9095 1236.81 80.3655 1240.9 84.9735L1232.58 93.0375C1229.17 89.4535 1225.33 86.8082 1221.06 85.1015C1216.8 83.3095 1212.23 82.4135 1207.37 82.4135C1202.33 82.4135 1197.64 83.2668 1193.29 84.9735C1189.02 86.6802 1185.31 89.0695 1182.15 92.1415C1178.99 95.2135 1176.52 98.8828 1174.73 103.15C1173.02 107.331 1172.17 111.896 1172.17 116.846C1172.17 121.795 1173.02 126.403 1174.73 130.67C1176.52 134.851 1178.99 138.478 1182.15 141.55C1185.31 144.622 1189.02 147.011 1193.29 148.718C1197.64 150.424 1202.33 151.278 1207.37 151.278C1212.23 151.278 1216.8 150.424 1221.06 148.718C1225.33 146.926 1229.17 144.195 1232.58 140.526L1240.9 148.59C1236.81 153.198 1231.82 156.696 1225.93 159.086C1220.12 161.475 1213.72 162.67 1206.73 162.67ZM1260.11 161.646L1300.69 72.0455H1313.36L1354.06 161.646H1340.62L1304.4 79.2135H1309.52L1273.29 161.646H1260.11ZM1277.39 139.246L1280.85 129.006H1331.28L1334.99 139.246H1277.39ZM1384.07 161.646V72.0455H1419.01C1426.86 72.0455 1433.56 73.2828 1439.11 75.7575C1444.65 78.2322 1448.92 81.8162 1451.91 86.5095C1454.89 91.2028 1456.39 96.7922 1456.39 103.278C1456.39 109.763 1454.89 115.352 1451.91 120.046C1448.92 124.654 1444.65 128.195 1439.11 130.67C1433.56 133.144 1426.86 134.382 1419.01 134.382H1391.11L1396.87 128.494V161.646H1384.07ZM1443.97 161.646L1421.19 129.134H1434.88L1457.92 161.646H1443.97ZM1396.87 129.774L1391.11 123.502H1418.63C1426.82 123.502 1433.01 121.752 1437.19 118.254C1441.45 114.67 1443.59 109.678 1443.59 103.278C1443.59 96.8775 1441.45 91.9282 1437.19 88.4295C1433.01 84.9308 1426.82 83.1815 1418.63 83.1815H1391.11L1396.87 76.7815V129.774ZM1505.36 110.702H1551.44V121.582H1505.36V110.702ZM1506.51 150.51H1558.73V161.646H1493.71V72.0455H1556.94V83.1815H1506.51V150.51Z" fill="#F7F3ED" fill-opacity="0.3"/>
<path d="M628.586 242.79L614.282 288.646H608.714L597.098 253.67C596.991 253.328 596.884 252.966 596.778 252.582C596.692 252.198 596.596 251.792 596.49 251.366C596.383 251.792 596.276 252.198 596.17 252.582C596.063 252.966 595.956 253.328 595.85 253.67L584.17 288.646H578.602L564.298 242.79H569.45C570.004 242.79 570.463 242.928 570.826 243.206C571.21 243.483 571.455 243.835 571.562 244.262L581.034 276.134C581.183 276.71 581.322 277.328 581.45 277.99C581.599 278.651 581.738 279.355 581.866 280.102C582.015 279.355 582.164 278.651 582.314 277.99C582.484 277.307 582.666 276.688 582.858 276.134L593.642 244.262C593.77 243.899 594.015 243.568 594.378 243.27C594.762 242.95 595.22 242.79 595.754 242.79H597.546C598.1 242.79 598.548 242.928 598.89 243.206C599.231 243.483 599.487 243.835 599.658 244.262L610.41 276.134C610.602 276.688 610.772 277.286 610.922 277.926C611.092 278.566 611.252 279.238 611.402 279.942C611.508 279.238 611.626 278.566 611.754 277.926C611.882 277.286 612.02 276.688 612.17 276.134L621.674 244.262C621.78 243.878 622.015 243.536 622.378 243.238C622.762 242.939 623.22 242.79 623.754 242.79H628.586ZM660.459 268.902C660.459 267.579 660.267 266.374 659.883 265.286C659.52 264.176 658.976 263.227 658.251 262.438C657.547 261.627 656.683 261.008 655.659 260.582C654.635 260.134 653.472 259.91 652.171 259.91C649.44 259.91 647.275 260.71 645.675 262.31C644.096 263.888 643.115 266.086 642.731 268.902H660.459ZM665.067 284.102C664.363 284.955 663.52 285.702 662.539 286.342C661.557 286.96 660.501 287.472 659.371 287.878C658.261 288.283 657.109 288.582 655.915 288.774C654.72 288.987 653.536 289.094 652.363 289.094C650.123 289.094 648.053 288.72 646.155 287.974C644.277 287.206 642.645 286.096 641.259 284.646C639.893 283.174 638.827 281.36 638.059 279.206C637.291 277.051 636.907 274.576 636.907 271.782C636.907 269.52 637.248 267.408 637.931 265.446C638.635 263.483 639.637 261.787 640.939 260.358C642.24 258.907 643.829 257.776 645.707 256.966C647.584 256.134 649.696 255.718 652.043 255.718C653.984 255.718 655.776 256.048 657.419 256.71C659.083 257.35 660.512 258.288 661.707 259.526C662.923 260.742 663.872 262.256 664.555 264.07C665.237 265.862 665.579 267.91 665.579 270.214C665.579 271.11 665.483 271.707 665.291 272.006C665.099 272.304 664.736 272.454 664.203 272.454H642.539C642.603 274.502 642.88 276.283 643.371 277.798C643.883 279.312 644.587 280.582 645.483 281.606C646.379 282.608 647.445 283.366 648.683 283.878C649.92 284.368 651.307 284.614 652.843 284.614C654.272 284.614 655.499 284.454 656.523 284.134C657.568 283.792 658.464 283.43 659.211 283.046C659.957 282.662 660.576 282.31 661.067 281.99C661.579 281.648 662.016 281.478 662.379 281.478C662.848 281.478 663.211 281.659 663.467 282.022L665.067 284.102ZM749.302 265.734C749.302 269.168 748.758 272.326 747.67 275.206C746.582 278.064 745.046 280.528 743.062 282.598C741.078 284.667 738.689 286.278 735.894 287.43C733.121 288.56 730.049 289.126 726.678 289.126C723.307 289.126 720.235 288.56 717.462 287.43C714.689 286.278 712.31 284.667 710.326 282.598C708.342 280.528 706.806 278.064 705.718 275.206C704.63 272.326 704.086 269.168 704.086 265.734C704.086 262.299 704.63 259.152 705.718 256.294C706.806 253.414 708.342 250.939 710.326 248.87C712.31 246.779 714.689 245.158 717.462 244.006C720.235 242.854 723.307 242.278 726.678 242.278C730.049 242.278 733.121 242.854 735.894 244.006C738.689 245.158 741.078 246.779 743.062 248.87C745.046 250.939 746.582 253.414 747.67 256.294C748.758 259.152 749.302 262.299 749.302 265.734ZM742.934 265.734C742.934 262.918 742.55 260.39 741.782 258.15C741.014 255.91 739.926 254.022 738.518 252.486C737.11 250.928 735.403 249.734 733.398 248.902C731.393 248.07 729.153 247.654 726.678 247.654C724.225 247.654 721.995 248.07 719.99 248.902C717.985 249.734 716.267 250.928 714.838 252.486C713.43 254.022 712.342 255.91 711.574 258.15C710.806 260.39 710.422 262.918 710.422 265.734C710.422 268.55 710.806 271.078 711.574 273.318C712.342 275.536 713.43 277.424 714.838 278.982C716.267 280.518 717.985 281.702 719.99 282.534C721.995 283.344 724.225 283.75 726.678 283.75C729.153 283.75 731.393 283.344 733.398 282.534C735.403 281.702 737.11 280.518 738.518 278.982C739.926 277.424 741.014 275.536 741.782 273.318C742.55 271.078 742.934 268.55 742.934 265.734ZM767.022 288.646V261.094L763.438 260.678C762.99 260.571 762.617 260.411 762.318 260.198C762.041 259.963 761.902 259.632 761.902 259.206V256.87H767.022V254.214C767.022 252.358 767.278 250.715 767.79 249.286C768.323 247.835 769.07 246.619 770.03 245.638C771.011 244.635 772.185 243.878 773.55 243.366C774.915 242.854 776.451 242.598 778.158 242.598C779.609 242.598 780.942 242.811 782.158 243.238L782.03 246.118C781.987 246.63 781.699 246.907 781.166 246.95C780.654 246.992 779.961 247.014 779.086 247.014C778.105 247.014 777.209 247.142 776.398 247.398C775.609 247.632 774.926 248.038 774.35 248.614C773.774 249.19 773.326 249.958 773.006 250.918C772.707 251.856 772.558 253.019 772.558 254.406V256.87H787.182V253.382C787.182 251.526 787.438 249.883 787.95 248.454C788.483 247.003 789.23 245.787 790.19 244.806C791.171 243.803 792.345 243.046 793.71 242.534C795.075 242.022 796.611 241.766 798.318 241.766C799.747 241.766 801.081 241.979 802.318 242.406L802.19 245.254C802.147 245.766 801.859 246.043 801.326 246.086C800.814 246.128 800.121 246.15 799.246 246.15C798.265 246.15 797.369 246.278 796.558 246.534C795.769 246.79 795.086 247.206 794.51 247.782C793.934 248.358 793.486 249.115 793.166 250.054C792.867 250.992 792.718 252.155 792.718 253.542V256.87H802.062V260.998H792.91V288.646H787.182V260.998H772.75V288.646H767.022ZM836.426 268.902C836.426 267.579 836.234 266.374 835.85 265.286C835.487 264.176 834.943 263.227 834.218 262.438C833.514 261.627 832.65 261.008 831.626 260.582C830.602 260.134 829.439 259.91 828.138 259.91C825.407 259.91 823.242 260.71 821.642 262.31C820.063 263.888 819.082 266.086 818.698 268.902H836.426ZM841.034 284.102C840.33 284.955 839.487 285.702 838.506 286.342C837.525 286.96 836.469 287.472 835.338 287.878C834.229 288.283 833.077 288.582 831.882 288.774C830.687 288.987 829.503 289.094 828.33 289.094C826.09 289.094 824.021 288.72 822.122 287.974C820.245 287.206 818.613 286.096 817.226 284.646C815.861 283.174 814.794 281.36 814.026 279.206C813.258 277.051 812.874 274.576 812.874 271.782C812.874 269.52 813.215 267.408 813.898 265.446C814.602 263.483 815.605 261.787 816.906 260.358C818.207 258.907 819.797 257.776 821.674 256.966C823.551 256.134 825.663 255.718 828.01 255.718C829.951 255.718 831.743 256.048 833.386 256.71C835.05 257.35 836.479 258.288 837.674 259.526C838.89 260.742 839.839 262.256 840.522 264.07C841.205 265.862 841.546 267.91 841.546 270.214C841.546 271.11 841.45 271.707 841.258 272.006C841.066 272.304 840.703 272.454 840.17 272.454H818.506C818.57 274.502 818.847 276.283 819.338 277.798C819.85 279.312 820.554 280.582 821.45 281.606C822.346 282.608 823.413 283.366 824.65 283.878C825.887 284.368 827.274 284.614 828.81 284.614C830.239 284.614 831.466 284.454 832.49 284.134C833.535 283.792 834.431 283.43 835.178 283.046C835.925 282.662 836.543 282.31 837.034 281.99C837.546 281.648 837.983 281.478 838.346 281.478C838.815 281.478 839.178 281.659 839.434 282.022L841.034 284.102ZM862.271 262.726C863.295 260.507 864.553 258.779 866.047 257.542C867.54 256.283 869.364 255.654 871.519 255.654C872.201 255.654 872.852 255.728 873.471 255.878C874.111 256.027 874.676 256.262 875.167 256.582L874.751 260.838C874.623 261.371 874.303 261.638 873.791 261.638C873.492 261.638 873.055 261.574 872.479 261.446C871.903 261.318 871.252 261.254 870.527 261.254C869.503 261.254 868.585 261.403 867.775 261.702C866.985 262 866.271 262.448 865.631 263.046C865.012 263.622 864.447 264.347 863.935 265.222C863.444 266.075 862.996 267.056 862.591 268.166V288.646H856.863V256.23H860.127C860.745 256.23 861.172 256.347 861.407 256.582C861.641 256.816 861.801 257.222 861.887 257.798L862.271 262.726ZM945.351 279.174C945.692 279.174 945.991 279.312 946.247 279.59L948.711 282.246C946.834 284.422 944.551 286.118 941.863 287.334C939.196 288.55 935.964 289.158 932.167 289.158C928.882 289.158 925.895 288.592 923.207 287.462C920.519 286.31 918.226 284.71 916.327 282.662C914.428 280.592 912.956 278.118 911.911 275.238C910.866 272.358 910.343 269.19 910.343 265.734C910.343 262.278 910.887 259.11 911.975 256.23C913.063 253.35 914.588 250.875 916.551 248.806C918.535 246.736 920.903 245.136 923.655 244.006C926.407 242.854 929.447 242.278 932.775 242.278C936.039 242.278 938.919 242.8 941.415 243.846C943.911 244.891 946.108 246.31 948.007 248.102L945.959 250.95C945.831 251.163 945.66 251.344 945.447 251.494C945.255 251.622 944.988 251.686 944.647 251.686C944.263 251.686 943.794 251.483 943.239 251.078C942.684 250.651 941.959 250.182 941.063 249.67C940.167 249.158 939.047 248.699 937.703 248.294C936.359 247.867 934.706 247.654 932.743 247.654C930.375 247.654 928.21 248.07 926.247 248.902C924.284 249.712 922.588 250.896 921.159 252.454C919.751 254.011 918.652 255.91 917.863 258.15C917.074 260.39 916.679 262.918 916.679 265.734C916.679 268.592 917.084 271.142 917.895 273.382C918.727 275.622 919.847 277.52 921.255 279.078C922.684 280.614 924.359 281.787 926.279 282.598C928.22 283.408 930.311 283.814 932.551 283.814C933.916 283.814 935.143 283.739 936.231 283.59C937.34 283.419 938.354 283.163 939.271 282.822C940.21 282.48 941.074 282.054 941.863 281.542C942.674 281.008 943.474 280.379 944.263 279.654C944.626 279.334 944.988 279.174 945.351 279.174ZM980.453 274.054C977.829 274.139 975.589 274.352 973.733 274.694C971.898 275.014 970.394 275.44 969.221 275.974C968.069 276.507 967.226 277.136 966.693 277.862C966.181 278.587 965.925 279.398 965.925 280.294C965.925 281.147 966.064 281.883 966.341 282.502C966.618 283.12 966.992 283.632 967.461 284.038C967.952 284.422 968.517 284.71 969.157 284.902C969.818 285.072 970.522 285.158 971.269 285.158C972.272 285.158 973.189 285.062 974.021 284.87C974.853 284.656 975.632 284.358 976.357 283.974C977.104 283.59 977.808 283.131 978.469 282.598C979.152 282.064 979.813 281.456 980.453 280.774V274.054ZM962.053 260.806C963.845 259.078 965.776 257.787 967.845 256.934C969.914 256.08 972.208 255.654 974.725 255.654C976.538 255.654 978.149 255.952 979.557 256.55C980.965 257.147 982.149 257.979 983.109 259.046C984.069 260.112 984.794 261.403 985.285 262.918C985.776 264.432 986.021 266.096 986.021 267.91V288.646H983.493C982.938 288.646 982.512 288.56 982.213 288.39C981.914 288.198 981.68 287.835 981.509 287.302L980.869 284.23C980.016 285.019 979.184 285.723 978.373 286.342C977.562 286.939 976.709 287.451 975.813 287.878C974.917 288.283 973.957 288.592 972.933 288.806C971.93 289.04 970.81 289.158 969.573 289.158C968.314 289.158 967.13 288.987 966.021 288.646C964.912 288.283 963.941 287.75 963.109 287.046C962.298 286.342 961.648 285.456 961.157 284.39C960.688 283.302 960.453 282.022 960.453 280.55C960.453 279.27 960.805 278.043 961.509 276.87C962.213 275.675 963.354 274.619 964.933 273.702C966.512 272.784 968.57 272.038 971.109 271.462C973.648 270.864 976.762 270.523 980.453 270.438V267.91C980.453 265.392 979.909 263.494 978.821 262.214C977.733 260.912 976.144 260.262 974.053 260.262C972.645 260.262 971.461 260.443 970.501 260.806C969.562 261.147 968.741 261.542 968.037 261.99C967.354 262.416 966.757 262.811 966.245 263.174C965.754 263.515 965.264 263.686 964.773 263.686C964.389 263.686 964.058 263.59 963.781 263.398C963.504 263.184 963.269 262.928 963.077 262.63L962.053 260.806ZM1008.43 262.726C1009.45 260.507 1010.71 258.779 1012.2 257.542C1013.69 256.283 1015.52 255.654 1017.67 255.654C1018.36 255.654 1019.01 255.728 1019.63 255.878C1020.27 256.027 1020.83 256.262 1021.32 256.582L1020.91 260.838C1020.78 261.371 1020.46 261.638 1019.95 261.638C1019.65 261.638 1019.21 261.574 1018.63 261.446C1018.06 261.318 1017.41 261.254 1016.68 261.254C1015.66 261.254 1014.74 261.403 1013.93 261.702C1013.14 262 1012.43 262.448 1011.79 263.046C1011.17 263.622 1010.6 264.347 1010.09 265.222C1009.6 266.075 1009.15 267.056 1008.75 268.166V288.646H1003.02V256.23H1006.28C1006.9 256.23 1007.33 256.347 1007.56 256.582C1007.8 256.816 1007.96 257.222 1008.04 257.798L1008.43 262.726ZM1055.03 268.902C1055.03 267.579 1054.84 266.374 1054.46 265.286C1054.09 264.176 1053.55 263.227 1052.83 262.438C1052.12 261.627 1051.26 261.008 1050.23 260.582C1049.21 260.134 1048.05 259.91 1046.75 259.91C1044.01 259.91 1041.85 260.71 1040.25 262.31C1038.67 263.888 1037.69 266.086 1037.31 268.902H1055.03ZM1059.64 284.102C1058.94 284.955 1058.09 285.702 1057.11 286.342C1056.13 286.96 1055.08 287.472 1053.95 287.878C1052.84 288.283 1051.68 288.582 1050.49 288.774C1049.29 288.987 1048.11 289.094 1046.94 289.094C1044.7 289.094 1042.63 288.72 1040.73 287.974C1038.85 287.206 1037.22 286.096 1035.83 284.646C1034.47 283.174 1033.4 281.36 1032.63 279.206C1031.87 277.051 1031.48 274.576 1031.48 271.782C1031.48 269.52 1031.82 267.408 1032.51 265.446C1033.21 263.483 1034.21 261.787 1035.51 260.358C1036.81 258.907 1038.4 257.776 1040.28 256.966C1042.16 256.134 1044.27 255.718 1046.62 255.718C1048.56 255.718 1050.35 256.048 1051.99 256.71C1053.66 257.35 1055.09 258.288 1056.28 259.526C1057.5 260.742 1058.45 262.256 1059.13 264.07C1059.81 265.862 1060.15 267.91 1060.15 270.214C1060.15 271.11 1060.06 271.707 1059.87 272.006C1059.67 272.304 1059.31 272.454 1058.78 272.454H1037.11C1037.18 274.502 1037.45 276.283 1037.95 277.798C1038.46 279.312 1039.16 280.582 1040.06 281.606C1040.95 282.608 1042.02 283.366 1043.26 283.878C1044.49 284.368 1045.88 284.614 1047.42 284.614C1048.85 284.614 1050.07 284.454 1051.1 284.134C1052.14 283.792 1053.04 283.43 1053.79 283.046C1054.53 282.662 1055.15 282.31 1055.64 281.99C1056.15 281.648 1056.59 281.478 1056.95 281.478C1057.42 281.478 1057.79 281.659 1058.04 282.022L1059.64 284.102ZM1160.06 242.79L1145.75 288.646H1140.19L1128.57 253.67C1128.46 253.328 1128.36 252.966 1128.25 252.582C1128.16 252.198 1128.07 251.792 1127.96 251.366C1127.86 251.792 1127.75 252.198 1127.64 252.582C1127.54 252.966 1127.43 253.328 1127.32 253.67L1115.64 288.646H1110.07L1095.77 242.79H1100.92C1101.48 242.79 1101.94 242.928 1102.3 243.206C1102.68 243.483 1102.93 243.835 1103.03 244.262L1112.51 276.134C1112.66 276.71 1112.79 277.328 1112.92 277.99C1113.07 278.651 1113.21 279.355 1113.34 280.102C1113.49 279.355 1113.64 278.651 1113.79 277.99C1113.96 277.307 1114.14 276.688 1114.33 276.134L1125.11 244.262C1125.24 243.899 1125.49 243.568 1125.85 243.27C1126.23 242.95 1126.69 242.79 1127.23 242.79H1129.02C1129.57 242.79 1130.02 242.928 1130.36 243.206C1130.7 243.483 1130.96 243.835 1131.13 244.262L1141.88 276.134C1142.07 276.688 1142.24 277.286 1142.39 277.926C1142.56 278.566 1142.72 279.238 1142.87 279.942C1142.98 279.238 1143.1 278.566 1143.23 277.926C1143.35 277.286 1143.49 276.688 1143.64 276.134L1153.15 244.262C1153.25 243.878 1153.49 243.536 1153.85 243.238C1154.23 242.939 1154.69 242.79 1155.23 242.79H1160.06ZM1179.63 256.23V288.646H1173.93V256.23H1179.63ZM1180.84 246.054C1180.84 246.608 1180.72 247.131 1180.49 247.622C1180.28 248.091 1179.98 248.518 1179.59 248.902C1179.23 249.264 1178.79 249.552 1178.28 249.766C1177.79 249.979 1177.27 250.086 1176.71 250.086C1176.16 250.086 1175.64 249.979 1175.15 249.766C1174.68 249.552 1174.26 249.264 1173.9 248.902C1173.54 248.518 1173.25 248.091 1173.03 247.622C1172.82 247.131 1172.71 246.608 1172.71 246.054C1172.71 245.499 1172.82 244.976 1173.03 244.486C1173.25 243.974 1173.54 243.536 1173.9 243.174C1174.26 242.79 1174.68 242.491 1175.15 242.278C1175.64 242.064 1176.16 241.958 1176.71 241.958C1177.27 241.958 1177.79 242.064 1178.28 242.278C1178.79 242.491 1179.23 242.79 1179.59 243.174C1179.98 243.536 1180.28 243.974 1180.49 244.486C1180.72 244.976 1180.84 245.499 1180.84 246.054ZM1207.26 289.158C1204.7 289.158 1202.72 288.443 1201.34 287.014C1199.97 285.584 1199.29 283.526 1199.29 280.838V260.998H1195.39C1195.04 260.998 1194.76 260.902 1194.52 260.71C1194.29 260.496 1194.17 260.176 1194.17 259.75V257.478L1199.48 256.806L1200.79 246.79C1200.86 246.47 1201 246.214 1201.21 246.022C1201.44 245.808 1201.74 245.702 1202.11 245.702H1204.99V256.87H1214.36V260.998H1204.99V280.454C1204.99 281.819 1205.32 282.832 1205.98 283.494C1206.64 284.155 1207.49 284.486 1208.54 284.486C1209.13 284.486 1209.65 284.411 1210.07 284.262C1210.52 284.091 1210.91 283.91 1211.23 283.718C1211.55 283.526 1211.81 283.355 1212.03 283.206C1212.26 283.035 1212.46 282.95 1212.63 282.95C1212.93 282.95 1213.2 283.131 1213.43 283.494L1215.1 286.214C1214.12 287.131 1212.93 287.856 1211.55 288.39C1210.16 288.902 1208.73 289.158 1207.26 289.158ZM1234.29 260.55C1235.68 259.078 1237.21 257.904 1238.9 257.03C1240.58 256.155 1242.53 255.718 1244.72 255.718C1246.49 255.718 1248.05 256.016 1249.39 256.614C1250.76 257.19 1251.89 258.022 1252.79 259.11C1253.7 260.176 1254.4 261.467 1254.87 262.982C1255.34 264.496 1255.57 266.171 1255.57 268.006V288.646H1249.84V268.006C1249.84 265.552 1249.28 263.654 1248.15 262.31C1247.04 260.944 1245.34 260.262 1243.06 260.262C1241.37 260.262 1239.79 260.667 1238.32 261.478C1236.87 262.288 1235.53 263.387 1234.29 264.774V288.646H1228.56V241.51H1234.29V260.55ZM1324.63 283.43V288.646H1298.61V242.79H1304.79V283.43H1324.63ZM1349.81 255.718C1352.18 255.718 1354.31 256.112 1356.21 256.902C1358.11 257.691 1359.73 258.811 1361.08 260.262C1362.42 261.712 1363.44 263.472 1364.15 265.542C1364.87 267.59 1365.24 269.883 1365.24 272.422C1365.24 274.982 1364.87 277.286 1364.15 279.334C1363.44 281.382 1362.42 283.131 1361.08 284.582C1359.73 286.032 1358.11 287.152 1356.21 287.942C1354.31 288.71 1352.18 289.094 1349.81 289.094C1347.42 289.094 1345.27 288.71 1343.35 287.942C1341.45 287.152 1339.83 286.032 1338.48 284.582C1337.14 283.131 1336.1 281.382 1335.38 279.334C1334.68 277.286 1334.32 274.982 1334.32 272.422C1334.32 269.883 1334.68 267.59 1335.38 265.542C1336.1 263.472 1337.14 261.712 1338.48 260.262C1339.83 258.811 1341.45 257.691 1343.35 256.902C1345.27 256.112 1347.42 255.718 1349.81 255.718ZM1349.81 284.646C1353.01 284.646 1355.4 283.579 1356.98 281.446C1358.56 279.291 1359.35 276.294 1359.35 272.454C1359.35 268.592 1358.56 265.584 1356.98 263.43C1355.4 261.275 1353.01 260.198 1349.81 260.198C1348.19 260.198 1346.77 260.475 1345.56 261.03C1344.36 261.584 1343.36 262.384 1342.55 263.43C1341.76 264.475 1341.16 265.766 1340.76 267.302C1340.37 268.816 1340.18 270.534 1340.18 272.454C1340.18 276.294 1340.97 279.291 1342.55 281.446C1344.15 283.579 1346.57 284.646 1349.81 284.646ZM1407.68 256.23L1394.47 288.646H1389.35L1376.13 256.23H1380.77C1381.24 256.23 1381.62 256.347 1381.92 256.582C1382.22 256.816 1382.42 257.094 1382.53 257.414L1390.75 278.278C1391.01 279.067 1391.23 279.835 1391.43 280.582C1391.62 281.328 1391.8 282.075 1391.97 282.822C1392.14 282.075 1392.32 281.328 1392.51 280.582C1392.71 279.835 1392.94 279.067 1393.22 278.278L1401.54 257.414C1401.67 257.072 1401.88 256.795 1402.18 256.582C1402.48 256.347 1402.83 256.23 1403.23 256.23H1407.68ZM1442.05 268.902C1442.05 267.579 1441.85 266.374 1441.47 265.286C1441.11 264.176 1440.56 263.227 1439.84 262.438C1439.13 261.627 1438.27 261.008 1437.25 260.582C1436.22 260.134 1435.06 259.91 1433.76 259.91C1431.03 259.91 1428.86 260.71 1427.26 262.31C1425.68 263.888 1424.7 266.086 1424.32 268.902H1442.05ZM1446.65 284.102C1445.95 284.955 1445.11 285.702 1444.13 286.342C1443.14 286.96 1442.09 287.472 1440.96 287.878C1439.85 288.283 1438.7 288.582 1437.5 288.774C1436.31 288.987 1435.12 289.094 1433.95 289.094C1431.71 289.094 1429.64 288.72 1427.74 287.974C1425.86 287.206 1424.23 286.096 1422.85 284.646C1421.48 283.174 1420.41 281.36 1419.65 279.206C1418.88 277.051 1418.49 274.576 1418.49 271.782C1418.49 269.52 1418.84 267.408 1419.52 265.446C1420.22 263.483 1421.22 261.787 1422.53 260.358C1423.83 258.907 1425.42 257.776 1427.29 256.966C1429.17 256.134 1431.28 255.718 1433.63 255.718C1435.57 255.718 1437.36 256.048 1439.01 256.71C1440.67 257.35 1442.1 258.288 1443.29 259.526C1444.51 260.742 1445.46 262.256 1446.14 264.07C1446.82 265.862 1447.17 267.91 1447.17 270.214C1447.17 271.11 1447.07 271.707 1446.88 272.006C1446.69 272.304 1446.32 272.454 1445.79 272.454H1424.13C1424.19 274.502 1424.47 276.283 1424.96 277.798C1425.47 279.312 1426.17 280.582 1427.07 281.606C1427.97 282.608 1429.03 283.366 1430.27 283.878C1431.51 284.368 1432.89 284.614 1434.43 284.614C1435.86 284.614 1437.09 284.454 1438.11 284.134C1439.16 283.792 1440.05 283.43 1440.8 283.046C1441.54 282.662 1442.16 282.31 1442.65 281.99C1443.17 281.648 1443.6 281.478 1443.97 281.478C1444.44 281.478 1444.8 281.659 1445.05 282.022L1446.65 284.102Z" fill="#F7F3ED" fill-opacity="0.3"/>
</svg>
