<svg width="435" height="341" viewBox="0 0 435 341" fill="none" xmlns="http://www.w3.org/2000/svg">
<path fill-rule="evenodd" clip-rule="evenodd" d="M169.202 1.89316C132.161 11.9012 110.327 52.4282 120.458 92.3661C127.895 121.682 144.17 143.722 176 167.583C194.768 181.651 222.365 199.466 241.75 210.026L248 213.431L254.25 210.006C272.178 200.183 303.19 180.305 320 167.861C338.915 153.859 356.741 133.436 365.763 115.431C380.465 86.0912 380.626 52.9242 366.175 30.8002C346.425 0.565157 307.574 -8.90985 277.241 9.11016C269.771 13.5482 258.537 24.9422 253 33.6982C250.525 37.6122 248.244 40.8402 247.93 40.8722C247.617 40.9052 244.765 37.1092 241.592 32.4392C232.119 18.4932 219.838 8.60216 205.242 3.16516C195.799 -0.351844 179.625 -0.922843 169.202 1.89316ZM116 199.994C104.68 201.385 90.949 205.091 62.603 214.407C37.852 222.541 20.601 227.052 9 228.425C0.553 229.424 0 229.71 0 233.071C0 234.723 1.157 241.105 2.571 247.253C7.793 269.962 16.023 284.944 27.74 293.072C37.121 299.58 44.712 301.255 77 303.944C91.611 305.161 110.58 308.869 124 313.132C129.225 314.792 143.4 320.135 155.5 325.006C181.924 335.644 192.523 338.597 208.5 339.777C241.886 342.241 277.503 335.806 310.992 321.257C335.81 310.476 356.962 297.488 385 275.815C392.975 269.65 405.795 259.842 413.489 254.019C432.621 239.539 435.006 237.06 434.978 231.681C434.94 224.389 430.632 220.931 421.586 220.931C411.992 220.931 411.026 221.484 360.5 255.944C331.572 275.673 307.977 285.817 285.641 288.127C270.184 289.725 245.682 287.979 228.5 284.055C216.428 281.298 197.039 274.721 191.069 271.358C188.561 269.945 188.594 269.925 192.5 270.5C194.7 270.823 200.325 271.939 205 272.979C238.16 280.354 268.764 282.828 283.995 279.364C297.094 276.385 303.184 268.864 299.937 259.677C297.282 252.166 293.694 250.95 268.27 248.945C245.644 247.16 232.178 242.302 200.629 224.542C183.275 214.772 168.289 207.271 161.232 204.821C147.923 200.201 129.935 198.282 116 199.994ZM350.994 215.865C349.615 216.285 346.915 217.427 344.994 218.405C341.71 220.075 301.635 246.269 299.523 248.126C298.272 249.226 306.806 256.83 309.357 256.888C312.285 256.956 362.478 223.202 364.631 219.719C365.009 219.107 364.297 217.78 363.048 216.769C360.698 214.866 355.548 214.48 350.994 215.865ZM384.324 217.371C378.447 219.208 369.014 224.641 350.474 236.865C341.66 242.676 329.397 250.526 323.224 254.309C313.82 260.071 310.842 262.55 304.865 269.59C300.941 274.213 298.043 278.307 298.425 278.689C299.655 279.919 316.121 275.045 324.433 270.989C328.87 268.824 337.339 263.875 343.253 259.991C349.167 256.107 354.565 252.817 355.249 252.68C355.933 252.543 356.944 251.93 357.496 251.318C358.048 250.706 366.375 244.898 376 238.411C402.126 220.805 401.493 221.4 397.777 217.938C395.281 215.613 390.58 215.414 384.324 217.371Z" fill="#2C3B2D"/>
</svg>
